<?xml version="1.0" encoding="UTF-8"?>
<svg id="Layer_2" data-name="Layer 2" xmlns="http://www.w3.org/2000/svg" viewBox="0 0 1021.85 312.18">
  <defs>
    <style>
      .cls-1 {
        fill: #fff;
      }

      .cls-2 {
        fill: #ed8b33;
      }
    </style>
  </defs>
  <g id="Layer_1-2" data-name="Layer 1">
    <g>
      <path class="cls-1" d="M127.11,168.29v83.35h-38.22v-83.35h-15.42v-24.85h15.42c.17-11.14,1.16-19.26,2.97-24.37,1.8-5.1,6.43-9.64,13.91-13.61,7.47-3.96,17.62-5.95,30.45-5.95,5.27,0,11.33.39,18.19,1.18v24.64c-5.63-.36-10.28-.53-13.97-.53-5.36,0-8.92,1.14-10.68,3.43-1.76,2.29-2.64,6-2.64,11.14v4.07h24.12v24.85h-24.12Z"/>
      <path class="cls-1" d="M284.09,193.13h-82.17c-.09,2.32-.13,4.33-.13,6.04,0,9.26,2.42,16.24,7.27,20.96,4.85,4.71,10.64,7.07,17.38,7.07,12.56,0,20.1-6.81,22.63-20.44l34.13,2.57c-9.53,30-28.87,45-58.02,45-12.73,0-23.53-2.59-32.43-7.78-8.89-5.19-16.22-12.75-22-22.69-5.77-9.94-8.66-21.86-8.66-35.75,0-20.66,5.79-37.33,17.38-50.02,11.59-12.68,26.48-19.03,44.69-19.03,16.43,0,30.53,5.89,42.29,17.68,11.76,11.79,17.64,30.58,17.64,56.38ZM201.8,170.89h45.38c-1.18-17.83-8.39-26.74-21.62-26.74-14.16,0-22.08,8.91-23.77,26.74Z"/>
      <path class="cls-1" d="M490.28,251.63h-37.67v-71.88c0-10.11-.3-16.69-.89-19.74-.59-3.04-2.13-5.57-4.61-7.59-2.49-2.01-5.92-3.02-10.3-3.02-4.13,0-8.34,1.5-12.64,4.5-4.3,3-6.45,11.62-6.45,25.84v71.88h-37.67v-71.88c0-10.37-.47-17.08-1.39-20.12-.93-3.04-2.68-5.51-5.25-7.39-2.57-1.89-5.84-2.83-9.8-2.83-6.49,0-11.31,2.08-14.47,6.24-3.16,4.16-4.74,12.19-4.74,24.11v71.88h-36.53V121.77h35.4v19.8c5.99-15,17.98-22.5,35.96-22.5,16.29,0,28.07,7.5,35.33,22.5,7.08-15,19.43-22.5,37.04-22.5,8.43,0,15.68,1.76,21.75,5.27,6.07,3.52,10.41,8.1,13.02,13.76s3.92,15.39,3.92,29.19v84.35Z"/>
      <path class="cls-1" d="M632.62,251.63h-36.53c-1.18-5.14-1.77-11.91-1.77-20.32-6.4,9.26-12.77,15.41-19.12,18.45-6.35,3.04-13.57,4.57-21.65,4.57-11.95,0-21.6-3.3-28.97-9.9-7.36-6.6-11.04-15.47-11.04-26.61,0-8.14,2.14-15.64,6.44-22.5,4.29-6.86,11.19-12.24,20.7-16.14,9.51-3.9,26.84-6.79,52-8.68v-7.46c0-12.6-6.18-18.9-18.53-18.9-13.19,0-20.54,6.3-22.05,18.9l-34.76-3.34c2.28-14.74,9.14-25.2,20.61-31.37,11.46-6.17,24.44-9.26,38.94-9.26,8.68,0,16.85,1.03,24.52,3.09,7.67,2.06,13.65,5.14,17.95,9.26,4.3,4.11,7.21,8.47,8.72,13.05,1.52,4.59,2.28,12.58,2.28,23.98v58.89c0,11.32.76,19.42,2.28,24.3ZM592.67,189.4c-26.29,2.66-39.44,10.76-39.44,24.3,0,4.54,1.38,8.47,4.16,11.76,2.77,3.3,6.72,4.95,11.85,4.95,6.64,0,12.2-2.81,16.7-8.42,4.49-5.61,6.74-12.54,6.74-20.77v-11.83Z"/>
      <path class="cls-1" d="M749.05,121.77v23.92l-56.96,78.05h59.49v27.9h-100.5v-27.9l56.32-75.86h-51.64v-26.1h93.3Z"/>
      <path class="cls-1" d="M825.22,119.07c19.45,0,34.62,6.47,45.52,19.42,10.9,12.94,16.36,29.15,16.36,48.6s-5.66,35.21-16.99,48.02c-11.32,12.82-26.37,19.22-45.15,19.22s-32.73-6.34-43.63-19.03c-10.9-12.68-16.35-28.97-16.35-48.86,0-13.8,2.46-25.52,7.39-35.17,4.92-9.64,11.68-17.42,20.27-23.34,8.59-5.92,19.45-8.87,32.58-8.87ZM826.23,144.14c-7.14,0-12.52,2.81-16.13,8.42-3.61,5.62-5.42,16.78-5.42,33.5,0,15.34,1.72,26.36,5.17,33.04s8.82,10.03,16.13,10.03c6.39,0,11.55-2.85,15.5-8.55,3.95-5.7,5.92-16.56,5.92-32.59,0-17.06-1.74-28.63-5.23-34.72-3.49-6.09-8.8-9.13-15.94-9.13Z"/>
      <path class="cls-1" d="M1021.85,251.63h-37.67v-72.9c0-8.83-.34-14.87-1.01-18.13-.68-3.26-2.32-6.02-4.93-8.29-2.61-2.27-5.9-3.41-9.86-3.41-13.23,0-19.85,9.95-19.85,29.83v72.9h-37.67V121.77h35.02v21.99c5.82-10.46,11.55-17.19,17.19-20.19,5.65-3,11.76-4.5,18.33-4.5,12.14,0,21.91,3.32,29.33,9.97,7.42,6.64,11.13,19.69,11.13,39.15v83.45Z"/>
    </g>
    <polygon class="cls-2" points="40.02 99.03 163.01 75.96 2.69 75.96 0 312.18 177.38 266.82 38.62 266.37 40.02 99.03"/>
    <path class="cls-1" d="M20.65,75.54v-32.92C22.4,18.26,43.12-.52,67.02.01c23.15.52,42.64,19.02,44.32,42.61v33.35h-15.16v-26.86c1.09-18.15-12.22-33.19-27.65-34.61-17.24-1.58-34.53,14.12-33.57,34.61v26.86h-14.31"/>
    <path class="cls-1" d="M49.45,104.58v-46.57c.54-26.73,21.03-48.05,44.98-47.45,23.34.59,42.62,21.82,42.93,47.87v28.99c-4.59.94-9.17,1.88-13.76,2.82-.02-10.67-.04-21.33-.06-32-.53-18.44-13.56-32.98-28.5-34.04-17.04-1.21-33.22,15.37-32.57,36.62.09,13.78.17,27.56.25,41.34-4.42.8-8.85,1.61-13.27,2.41Z"/>
  </g>
</svg>