<?xml version="1.0" encoding="UTF-8"?>
<svg id="Layer_2" data-name="Layer 2" xmlns="http://www.w3.org/2000/svg" viewBox="0 0 73.46 22.44">
  <defs>
    <style>
      .cls-1 {
        fill: #ed8b31;
      }

      .cls-2 {
        fill: #414042;
      }
    </style>
  </defs>
  <g id="Layer_1-2" data-name="Layer 1">
    <g id="uuid-e7b232ce-6ae3-429d-bef2-1cdd820f3b77" data-name="Layer 1-2">
      <g>
        <path class="cls-2" d="M9.14,12.1v5.99h-2.75v-5.99h-1.11v-1.79h1.11c.01-.8.08-1.38.21-1.75.13-.37.46-.69,1-.98.54-.28,1.27-.43,2.19-.43.38,0,.81.03,1.31.08v1.77c-.4-.03-.74-.04-1-.04-.39,0-.64.08-.77.25-.13.16-.19.43-.19.8v.29h1.73v1.79h-1.73Z"/>
        <path class="cls-2" d="M20.42,13.88h-5.91c0,.17,0,.31,0,.43,0,.67.17,1.17.52,1.51.35.34.76.51,1.25.51.9,0,1.44-.49,1.63-1.47l2.45.18c-.68,2.16-2.08,3.23-4.17,3.23-.92,0-1.69-.19-2.33-.56-.64-.37-1.17-.92-1.58-1.63-.41-.71-.62-1.57-.62-2.57,0-1.49.42-2.68,1.25-3.6.83-.91,1.9-1.37,3.21-1.37,1.18,0,2.19.42,3.04,1.27.85.85,1.27,2.2,1.27,4.05h0ZM14.51,12.28h3.26c-.08-1.28-.6-1.92-1.55-1.92-1.02,0-1.59.64-1.71,1.92h0Z"/>
        <path class="cls-2" d="M35.24,18.09h-2.71v-5.17c0-.73-.02-1.2-.06-1.42-.04-.22-.15-.4-.33-.55-.18-.14-.43-.22-.74-.22-.3,0-.6.11-.91.32-.31.22-.46.84-.46,1.86v5.17h-2.71v-5.17c0-.75-.03-1.23-.1-1.45-.07-.22-.19-.4-.38-.53-.18-.14-.42-.2-.7-.2-.47,0-.81.15-1.04.45-.23.3-.34.88-.34,1.73v5.17h-2.63v-9.33h2.54v1.42c.43-1.08,1.29-1.62,2.58-1.62,1.17,0,2.02.54,2.54,1.62.51-1.08,1.4-1.62,2.66-1.62.61,0,1.13.13,1.56.38.44.25.75.58.94.99.19.41.28,1.11.28,2.1v6.06h0Z"/>
        <path class="cls-2" d="M45.48,18.09h-2.63c-.08-.37-.13-.86-.13-1.46-.46.67-.92,1.11-1.37,1.33-.46.22-.98.33-1.56.33-.86,0-1.55-.24-2.08-.71-.53-.47-.79-1.11-.79-1.91,0-.59.15-1.12.46-1.62.31-.49.8-.88,1.49-1.16.68-.28,1.93-.49,3.74-.62v-.54c0-.91-.44-1.36-1.33-1.36-.95,0-1.48.45-1.59,1.36l-2.5-.24c.16-1.06.66-1.81,1.48-2.26.82-.44,1.76-.67,2.8-.67.62,0,1.21.07,1.76.22.55.15.98.37,1.29.67.31.3.52.61.63.94.11.33.16.9.16,1.72v4.23c0,.81.05,1.4.16,1.75h0ZM42.6,13.61c-1.89.19-2.84.77-2.84,1.75,0,.33.1.61.3.85.2.24.48.36.85.36.48,0,.88-.2,1.2-.61.32-.4.48-.9.48-1.49v-.85h0Z"/>
        <path class="cls-2" d="M53.84,8.75v1.72l-4.09,5.61h4.28v2.01h-7.22v-2.01l4.05-5.45h-3.71v-1.88h6.71,0Z"/>
        <path class="cls-2" d="M59.32,8.56c1.4,0,2.49.47,3.27,1.4.78.93,1.18,2.1,1.18,3.49s-.41,2.53-1.22,3.45c-.81.92-1.9,1.38-3.25,1.38s-2.35-.46-3.14-1.37c-.78-.91-1.18-2.08-1.18-3.51,0-.99.18-1.83.53-2.53.35-.69.84-1.25,1.46-1.68.62-.43,1.4-.64,2.34-.64h0ZM59.39,10.36c-.51,0-.9.2-1.16.61-.26.4-.39,1.21-.39,2.41,0,1.1.12,1.89.37,2.38s.63.72,1.16.72c.46,0,.83-.2,1.11-.61.28-.41.43-1.19.43-2.34,0-1.23-.13-2.06-.38-2.5-.25-.44-.63-.66-1.15-.66Z"/>
        <path class="cls-2" d="M73.45,18.09h-2.71v-5.24c0-.63-.02-1.07-.07-1.3-.05-.23-.17-.43-.35-.6-.19-.16-.42-.25-.71-.25-.95,0-1.43.72-1.43,2.14v5.24h-2.71v-9.33h2.52v1.58c.42-.75.83-1.24,1.24-1.45.41-.22.85-.32,1.32-.32.87,0,1.57.24,2.11.72.53.48.8,1.42.8,2.81v6h0Z"/>
      </g>
      <polygon class="cls-1" points="2.88 7.12 11.72 5.46 .19 5.46 0 22.44 12.75 19.18 2.78 19.15 2.88 7.12"/>
      <path class="cls-2" d="M1.48,5.43v-2.37C1.61,1.31,3.1-.04,4.82,0c1.66.04,3.07,1.37,3.19,3.06v2.4h-1.09v-1.93c.08-1.3-.88-2.39-1.99-2.49-1.24-.11-2.48,1.02-2.41,2.49v1.93h-1.03"/>
      <path class="cls-2" d="M3.55,7.52v-3.35c.04-1.92,1.51-3.45,3.23-3.41,1.68.04,3.06,1.57,3.09,3.44v2.08c-.33.07-.66.14-.99.2,0-.77,0-1.53,0-2.3-.04-1.33-.97-2.37-2.05-2.45-1.22-.09-2.39,1.1-2.34,2.63,0,.99.01,1.98.02,2.97-.32.06-.64.12-.95.17h0Z"/>
    </g>
  </g>
</svg>