<?xml version="1.0" encoding="UTF-8"?>
<svg id="Layer_2" data-name="Layer 2" xmlns="http://www.w3.org/2000/svg" xmlns:xlink="http://www.w3.org/1999/xlink" viewBox="0 0 1097.25 214.28">
  <defs>
    <style>
      .cls-1 {
        fill: #93278f;
      }

      .cls-2 {
        fill: #8b3284;
      }

      .cls-3 {
        fill: #4d4d4d;
        font-family: QanelasSoftDEMO-ExtraBold, 'Qanelas Soft DEMO';
        font-size: 103.87px;
        font-weight: 700;
      }

      .cls-4 {
        letter-spacing: 0em;
      }

      .cls-5 {
        fill: url(#linear-gradient);
      }
    </style>
    <linearGradient id="linear-gradient" x1="0" y1="108.67" x2="316.63" y2="108.67" gradientUnits="userSpaceOnUse">
      <stop offset="0" stop-color="#1168b7"/>
      <stop offset="1" stop-color="#93278f"/>
    </linearGradient>
  </defs>
  <g id="Layer_1-2" data-name="Layer 1">
    <circle class="cls-2" cx="50.38" cy="91.66" r="5.66"/>
    <circle class="cls-2" cx="81.12" cy="159.39" r="5.66"/>
    <circle class="cls-2" cx="119.15" cy="146.31" r="5.66"/>
    <circle class="cls-2" cx="145.31" cy="208.61" r="5.66"/>
    <circle class="cls-2" cx="230.81" cy="195.94" r="5.66"/>
    <circle class="cls-2" cx="159.88" cy="129.86" r="5.66"/>
    <circle class="cls-2" cx="220.83" cy="103.56" r="5.66"/>
    <circle class="cls-2" cx="169.59" cy="73.63" r="5.66"/>
    <circle class="cls-2" cx="187.99" cy="13.48" r="5.66"/>
    <circle class="cls-2" cx="171.2" cy="48.82" r="5.66"/>
    <circle class="cls-2" cx="116.99" cy="26.7" r="5.66"/>
    <circle class="cls-2" cx="126.43" cy="5.66" r="5.66"/>
    <circle class="cls-2" cx="69.8" cy="26.7" r="5.66"/>
    <circle class="cls-2" cx="94.34" cy="86" r="5.66"/>
    <circle class="cls-2" cx="193.66" cy="160.17" r="5.66"/>
    <circle class="cls-2" cx="220.83" cy="131.85" r="5.66"/>
    <circle class="cls-2" cx="266.21" cy="129.86" r="5.66"/>
    <circle class="cls-2" cx="262.7" cy="83.74" r="5.66"/>
    <path class="cls-1" d="M160.45,131.22l-66.62-46.09,76.73-12.46-10.11,58.55ZM97.96,86.06l61.35,42.44,9.31-53.92-70.66,11.48Z"/>
    <polygon class="cls-1" points="162.45 130.59 161.82 129.13 219.13 104.69 170.78 74.3 171.63 72.96 222.53 104.96 162.45 130.59"/>
    <polygon class="cls-1" points="223.73 102.48 223.12 101.01 262.15 84.83 171.92 49.94 170.38 73.68 168.79 73.58 170.48 47.69 266.41 84.78 223.73 102.48"/>
    <path class="cls-1" d="M92.89,87.58l23.66-61.93,53.35,22.43-.26.61,1.22-.59.69,1.43-78.66,38.06ZM117.44,27.75l-21.65,56.67,72.74-35.19-51.09-21.48Z"/>
    <path class="cls-1" d="M49.27,91.58l20.41-67.23,25.79,62.33-46.2,4.91ZM69.91,29.05l-18.43,60.71,41.72-4.43-23.29-56.28Z"/>
    <rect class="cls-1" x="70.16" y="26.79" width="44.44" height="1.58"/>
    <path class="cls-1" d="M143.88,209.26l-43.08-30.16-20.53-18.65.13-.75-30.74-66.89,1.44-.66,29.79,64.82,13.15-73.8,26.17,63.6-38.18,13.13,19.76,17.95,43.01,30.09-.91,1.3ZM94.64,88.82l-12.35,69.34,35.81-12.32-23.46-57.02Z"/>
    <polygon class="cls-1" points="145.57 211.48 130.04 171.26 131.52 170.69 145.05 205.74 153.43 161.92 158.85 131.13 119.45 147.05 118.85 145.58 160.9 128.59 154.99 162.21 145.57 211.48"/>
    <polygon class="cls-1" points="146.71 209.18 145.6 208.05 193.1 161.51 220.24 131.32 221.42 132.38 194.24 162.6 146.71 209.18"/>
    <rect class="cls-1" x="144.9" y="201.85" width="86.33" height="1.58" transform="translate(-26.29 28.04) rotate(-7.97)"/>
    <rect class="cls-1" x="220.78" y="130.51" width="45.47" height="1.58" transform="translate(-7.84 15.72) rotate(-3.64)"/>
    <polygon class="cls-1" points="232.15 197.22 193.12 161.44 194.19 160.28 231.69 194.65 264.5 130.74 263.49 84.82 265.08 84.79 266.09 131.1 266 131.28 232.15 197.22"/>
    <rect class="cls-1" x="175.81" y="123.23" width="1.58" height="44.66" transform="translate(-51.08 168.78) rotate(-45.32)"/>
    <rect class="cls-1" x="124.32" y="146.12" width="1.58" height="27.01" transform="translate(-57.63 71.66) rotate(-26.21)"/>
    <rect class="cls-1" x="67.8" y="15.08" width="60.64" height="1.58" transform="translate(.81 36.13) rotate(-20.95)"/>
    <rect class="cls-1" x="157.57" y="-21.13" width="1.58" height="62.41" transform="translate(131.02 166.38) rotate(-83.72)"/>
    <rect class="cls-1" x="225.24" y="-1.32" width="1.58" height="100.87" transform="translate(35.12 179.71) rotate(-46.63)"/>
    <rect class="cls-1" x="148.03" y="-2.65" width="1.58" height="60.48" transform="translate(28.34 119.21) rotate(-47.76)"/>
    <rect class="cls-1" x="194.23" y="-33.16" width="1.58" height="156.79" transform="translate(57.54 190.76) rotate(-59.69)"/>
    <text class="cls-3" transform="translate(360.4 132.82)"><tspan x="0" y="0">Galaxy Mine</tspan><tspan class="cls-4" x="571.39" y="0">r</tspan><tspan x="606.19" y="0">als</tspan></text>
    <path class="cls-5" d="M46.04,108.29l2.68,10.66c-4.79,3.37-11.86,9-18.74,17.49-7.41,9.15-12.86,15.87-10.93,22.11,2.95,9.5,21.04,11.43,25.76,11.93,7.64.81,13.54-.12,14.81-.33,41.32-7,115.63-33.73,115.63-33.73,11.68-4.2,36.78-13.11,68.27-26.94,3.75-1.65,21.45-9.6,38.63-25.98,5.71-5.45,18.97-18.27,15.44-26.27-1-2.28-3.22-3.77-5.77-5.34-2.19-1.35-5.85-3.16-17.32-4.67-2.97-.39-7.07-.84-12-1.09-4.65-.39-9.84-.56-15.49-.31-3.44.15-6.68.44-9.7.82-2.42-3.85-4.83-7.71-7.25-11.56,10.44-1.18,23.04-1.8,37.25-.85,12.55.84,23.65,2.73,32.99,4.9,2.27.55,6.09,1.8,9.82,4.85,1.92,1.57,4.96,4.05,6.08,7.89,1.48,5.12-1.22,10.01-2.29,11.95-15.07,27.32-48.3,45.41-48.3,45.41-19.75,10.75-46.59,23.78-80.22,35.8-13.67,4.58-31.95,10.67-53.6,17.78-18.23,5.99-40.33,13.16-69.16,18.34-15.18,2.73-29.96,4.5-45.28-2.26-5.91-2.61-14.07-6.21-16.6-13.84-4.74-14.33,14.03-32.11,22.68-40.31,8.48-8.04,16.76-13.25,22.6-16.45Z"/>
  </g>
</svg>