<?xml version="1.0" encoding="UTF-8"?>
<svg id="Layer_2" data-name="Layer 2" xmlns="http://www.w3.org/2000/svg" viewBox="0 0 1103.38 396.26">
  <defs>
    <style>
      .cls-1 {
        font-family: Bardy-Regular, Bardy;
        font-size: 153.83px;
      }

      .cls-1, .cls-2 {
        fill: #fff;
      }

      .cls-3 {
        letter-spacing: 0em;
      }

      .cls-4 {
        fill: red;
      }

      .cls-5 {
        letter-spacing: .02em;
      }

      .cls-6 {
        letter-spacing: 0em;
      }

      .cls-7 {
        fill: #662d91;
      }

      .cls-8 {
        letter-spacing: .03em;
      }

      .cls-9 {
        letter-spacing: .01em;
      }
    </style>
  </defs>
  <g id="Layer_1-2" data-name="Layer 1">
    <rect class="cls-7" width="1103.38" height="396.26"/>
    <rect class="cls-2" x="165.76" y="153.15" width="40.28" height="138.04" rx="20.14" ry="20.14"/>
    <rect class="cls-2" x="237.38" y="157.18" width="40.28" height="103.8" rx="20.14" ry="20.14"/>
    <circle class="cls-2" cx="257.52" cy="123.51" r="20.14"/>
    <circle class="cls-2" cx="185.9" cy="123.51" r="20.14"/>
    <path class="cls-4" d="M258.44,189.16c-8.19,4.12-20.72,8.88-36.25,8.97-15.76.09-28.48-4.68-36.74-8.78-.59-.34-2.25-1.41-3.39-4.07-.83-1.93-1-3.81-1.04-4.77,0-4.47,1.71-8.09,3.82-8.09,8.98,5.36,21.36,10.66,36.19,10.93,15.94.29,29.16-5.34,38.51-10.93.25,0,1.61.05,2.7,2.37.69,1.46,1.12,3.49,1.12,5.72-.05.92-.19,2.11-.6,3.38-1.2,3.69-3.7,4.99-4.32,5.28Z"/>
    <text class="cls-1" transform="translate(320.58 227.51)"><tspan class="cls-5" x="0" y="0">get</tspan><tspan class="cls-6" x="208.58" y="0">w</tspan><tspan class="cls-8" x="322.26" y="0">o</tspan><tspan class="cls-9" x="399.79" y="0">r</tspan><tspan class="cls-5" x="462.24" y="0">x</tspan><tspan class="cls-3" x="552.84" y="0">s</tspan></text>
  </g>
</svg>