<?xml version="1.0" encoding="UTF-8"?>
<svg id="Layer_2" data-name="Layer 2" xmlns="http://www.w3.org/2000/svg" xmlns:xlink="http://www.w3.org/1999/xlink" viewBox="0 0 197.08 78.55">
  <defs>
    <style>
      .cls-1 {
        fill: url(#linear-gradient-2);
      }

      .cls-2 {
        fill: #6eb11e;
      }

      .cls-3 {
        fill: url(#linear-gradient-4);
      }

      .cls-4 {
        fill: url(#linear-gradient-3);
      }

      .cls-5 {
        fill: url(#linear-gradient-5);
      }

      .cls-6 {
        fill: #4d9e22;
      }

      .cls-7 {
        fill: url(#linear-gradient-7);
      }

      .cls-8 {
        fill: url(#linear-gradient-6);
      }

      .cls-9 {
        fill: #7f4a00;
      }

      .cls-10 {
        fill: url(#linear-gradient);
      }
    </style>
    <linearGradient id="linear-gradient" x1="19.13" y1="55.99" x2="19.18" y2="61.29" gradientUnits="userSpaceOnUse">
      <stop offset="0" stop-color="#4d9e22"/>
      <stop offset="1" stop-color="#7f4a00"/>
    </linearGradient>
    <linearGradient id="linear-gradient-2" x1="31.87" y1="15.69" x2="52" y2="24.87" gradientUnits="userSpaceOnUse">
      <stop offset="0" stop-color="#da3e19"/>
      <stop offset="1" stop-color="#f2ec00"/>
    </linearGradient>
    <linearGradient id="linear-gradient-3" x1="40.77" y1="13.52" x2="62.85" y2="13.52" gradientUnits="userSpaceOnUse">
      <stop offset="0" stop-color="#aad803"/>
      <stop offset="1" stop-color="#6eb11e"/>
    </linearGradient>
    <linearGradient id="linear-gradient-4" x1="66.41" y1="16.29" x2="95.35" y2="16.29" xlink:href="#linear-gradient-3"/>
    <linearGradient id="linear-gradient-5" x1="95.89" y1="16.39" x2="121.76" y2="16.39" gradientUnits="userSpaceOnUse">
      <stop offset="0" stop-color="#aad803"/>
      <stop offset=".44" stop-color="#6eb11e"/>
    </linearGradient>
    <linearGradient id="linear-gradient-6" x1="123.7" y1="16.39" x2="145.62" y2="16.39" gradientUnits="userSpaceOnUse">
      <stop offset=".06" stop-color="#6eb11e"/>
      <stop offset=".55" stop-color="#519f27"/>
    </linearGradient>
    <linearGradient id="linear-gradient-7" x1="129.84" y1="16.24" x2="144.44" y2="16.24" xlink:href="#linear-gradient-6"/>
  </defs>
  <g id="Layer_1-2" data-name="Layer 1">
    <g>
      <path class="cls-9" d="M15.05,55.82c-1.43.18-1.52.32-1.52,1.68v1.94c0,.81.02,1.57.14,2.19-1.43.32-3.3.83-5.24.83-5.24,0-8.42-3.25-8.42-7.89,0-4.87,3.97-7.78,8.59-7.78,2.35,0,4.08.46,4.8.58.05.85.16,2.26.35,3.72l-.69.14c-.55-1.96-1.22-2.79-2.68-3.28-.53-.18-1.48-.3-2.15-.3-3.53,0-5.82,2.42-5.82,6.65,0,3.67,1.89,7.32,6.37,7.32.78,0,1.5-.16,1.96-.39.48-.28.78-.53.78-1.48v-1.89c0-1.69-.19-1.87-2.4-2.03v-.67h5.93v.67Z"/>
      <path class="cls-10" d="M19.95,59.69v-8.06c-1.09.49-2.12.76-3.25.95v.58c1.34.15,1.43.22,1.43,1.75v4.79c0,1.5-.14,1.62-1.59,1.75v.65h5.3v-.65c-1.77-.13-1.89-.25-1.89-1.77Z"/>
      <path class="cls-9" d="M33.38,60.16c-1.48,1.85-3.09,2.24-3.83,2.24-2.82,0-4.52-2.31-4.52-4.96,0-1.57.55-3.02,1.5-4.04.97-1.08,2.24-1.69,3.44-1.69,2.01,0,3.53,1.73,3.53,3.58-.02.46-.09.67-.46.76-.46.09-3.42.3-6.16.39-.07,3.09,1.82,4.36,3.46,4.36.95,0,1.82-.39,2.68-1.18l.37.53ZM29.41,52.59c-1.06,0-2.1.99-2.42,2.86,1.29,0,2.58,0,3.95-.07.42,0,.55-.12.55-.46.02-1.22-.78-2.33-2.08-2.33Z"/>
      <path class="cls-9" d="M43.56,60.16c-1.48,1.85-3.09,2.24-3.83,2.24-2.82,0-4.52-2.31-4.52-4.96,0-1.57.55-3.02,1.5-4.04.97-1.08,2.24-1.69,3.44-1.69,2.01,0,3.53,1.73,3.53,3.58-.02.46-.09.67-.46.76-.46.09-3.42.3-6.16.39-.07,3.09,1.82,4.36,3.46,4.36.95,0,1.82-.39,2.68-1.18l.37.53ZM39.59,52.59c-1.06,0-2.1.99-2.42,2.86,1.29,0,2.58,0,3.95-.07.42,0,.55-.12.55-.46.02-1.22-.78-2.33-2.08-2.33Z"/>
      <path class="cls-9" d="M51.68,62.12v-.65c1.34-.14,1.48-.3,1.48-1.87v-3.81c0-1.62-.58-2.7-2.1-2.7-.95,0-1.85.55-2.56,1.2v5.4c0,1.59.14,1.64,1.5,1.78v.65h-4.99v-.65c1.52-.16,1.66-.25,1.66-1.78v-4.76c0-1.5-.16-1.57-1.41-1.78v-.6c1.13-.19,2.26-.49,3.23-.92v1.82c.46-.32.97-.67,1.57-1.06.65-.42,1.25-.69,1.92-.69,1.85,0,3,1.36,3,3.6v4.39c0,1.57.14,1.64,1.48,1.78v.65h-4.78Z"/>
      <path class="cls-9" d="M77.16,62.3c-.3,0-.55-.02-.85-.05-1.68-.12-2.58-.55-3.6-1.99-.85-1.18-1.68-2.63-2.42-3.81-.46-.74-.76-.88-1.94-.88h-.81v3.62c0,1.96.25,2.08,2.1,2.26v.65h-6.16v-.65c1.92-.21,2.08-.3,2.08-2.26v-9.21c0-1.96-.25-2.03-2.08-2.24v-.65h5.89c1.68,0,2.82.21,3.69.78.95.6,1.57,1.64,1.57,3.05,0,1.98-1.27,3.23-2.98,3.97.42.72,1.41,2.26,2.1,3.3.85,1.22,1.29,1.8,1.82,2.38.62.67,1.15.92,1.68,1.06l-.09.65ZM68.65,54.8c1.2,0,1.96-.18,2.54-.67.9-.67,1.27-1.59,1.27-2.84,0-2.47-1.64-3.37-3.42-3.37-.67,0-1.06.09-1.22.23-.21.16-.28.39-.28.99v5.65h1.11Z"/>
      <path class="cls-9" d="M86.35,60.16c-1.48,1.85-3.09,2.24-3.83,2.24-2.82,0-4.52-2.31-4.52-4.96,0-1.57.55-3.02,1.5-4.04.97-1.08,2.24-1.69,3.44-1.69,2.01,0,3.53,1.73,3.53,3.58-.02.46-.09.67-.46.76-.46.09-3.42.3-6.16.39-.07,3.09,1.82,4.36,3.46,4.36.95,0,1.82-.39,2.68-1.18l.37.53ZM82.38,52.59c-1.06,0-2.1.99-2.42,2.86,1.29,0,2.58,0,3.95-.07.42,0,.55-.12.55-.46.02-1.22-.78-2.33-2.08-2.33Z"/>
      <path class="cls-9" d="M95.37,62.39c-.35,0-.85-.19-1.08-.44-.3-.3-.44-.62-.55-1.04-.92.62-2.05,1.48-2.77,1.48-1.64,0-2.82-1.36-2.82-2.84,0-1.13.62-1.87,1.89-2.31,1.41-.48,3.14-1.08,3.65-1.5v-.46c0-1.64-.83-2.58-2.03-2.58-.53,0-.85.25-1.08.53-.25.32-.42.83-.62,1.5-.11.37-.32.53-.67.53-.44,0-1.01-.46-1.01-1.02,0-.32.3-.6.76-.92.67-.48,2.01-1.34,3.32-1.62.69,0,1.41.21,1.94.62.81.69,1.18,1.48,1.18,2.68v4.45c0,1.06.39,1.38.81,1.38.28,0,.58-.12.83-.25l.23.65-1.96,1.15ZM93.69,56.55c-.51.25-1.62.74-2.15.97-.88.39-1.41.83-1.41,1.68,0,1.22.92,1.78,1.66,1.78.6,0,1.43-.37,1.89-.83v-3.6Z"/>
      <path class="cls-9" d="M97.96,62.12v-.65c1.48-.14,1.66-.25,1.66-1.78v-11.06c0-1.41-.11-1.55-1.59-1.73v-.6c1.25-.14,2.68-.51,3.42-.78v14.17c0,1.52.14,1.64,1.64,1.78v.65h-5.12Z"/>
      <path class="cls-9" d="M108.69,62.09c-.39.21-.76.3-.99.3-1.48,0-2.26-.9-2.26-2.75v-6.72h-1.59l-.09-.28.62-.67h1.06v-1.94c.44-.46,1.11-1.06,1.55-1.52l.35.05c-.05.97-.07,2.31-.07,3.42h2.63c.21.23.14.74-.14.95h-2.49v5.91c0,1.87.74,2.22,1.34,2.22.55,0,1.08-.21,1.41-.37l.21.6-1.52.81Z"/>
      <path class="cls-9" d="M121.8,52.61c-1.2.18-1.45.37-2.03,1.68-.58,1.29-1.2,2.86-2.79,6.88-1.5,3.69-1.92,5.12-2.28,6.32-.14.48-.39.6-.69.6-.74,0-1.41-.53-1.41-1.11,0-.3.16-.51.51-.81.74-.58,1.27-1.13,1.55-1.71.48-.97.83-1.78.95-2.08.09-.35.09-.55-.05-.95-.9-2.63-2.15-5.47-2.84-7.13-.51-1.27-.72-1.55-1.99-1.71v-.62h4.66v.62c-1.06.16-1.18.39-.88,1.25l2.24,5.68c.65-1.59,1.57-4.15,2.05-5.61.28-.88.11-1.13-1.22-1.32v-.62h4.22v.62Z"/>
      <path class="cls-9" d="M139.69,58.45c-.14.6-.76,2.98-.99,3.67h-11.22v-.65c2.15-.16,2.31-.37,2.31-2.26v-9.12c0-2.05-.25-2.17-1.99-2.33v-.65h7.06c2.17,0,3.07-.02,3.35-.05.02.58.12,2.31.21,3.53l-.69.12c-.21-.78-.44-1.27-.69-1.75-.37-.76-.9-.92-2.28-.92h-2.19c-.72,0-.76.07-.76.74v5.1h2.56c1.73,0,1.85-.35,2.12-1.92h.72v4.76h-.72c-.3-1.66-.49-1.89-2.15-1.89h-2.54v4.59c0,1.62.51,1.75,1.66,1.78h2.15c1.41,0,1.64-.21,2.15-.81.44-.49.92-1.43,1.25-2.12l.69.18Z"/>
      <path class="cls-9" d="M145.95,62.12v-.65c.99-.12,1.2-.28.81-.9l-1.73-2.7c-.51.83-1.01,1.64-1.48,2.45-.44.78-.39.99.81,1.15v.65h-4.36v-.65c1.45-.18,1.75-.35,2.61-1.48.65-.9,1.25-1.8,1.94-2.84l-1.99-3.12c-.69-1.11-.97-1.27-2.26-1.43v-.62h4.64v.62c-.97.14-1.06.32-.65.99l1.38,2.1c.44-.67.9-1.45,1.32-2.15.39-.65.25-.83-.74-.95v-.62h4.2v.62c-1.25.14-1.73.23-2.65,1.43-.32.44-.88,1.2-1.64,2.35l2.22,3.42c.88,1.27,1.13,1.48,2.54,1.66v.65h-4.96Z"/>
      <path class="cls-9" d="M151.35,52.47c1.08-.16,2.28-.55,3.35-.99v1.85c.07-.05,1.92-1.11,2.01-1.15.55-.3,1.04-.46,1.34-.46,2.54,0,4.08,2.12,4.08,4.41,0,3.51-2.77,5.72-5.79,6.28-.69-.02-1.32-.23-1.64-.42v3.12c0,1.71.18,1.85,1.96,2.01v.65h-5.47v-.65c1.5-.16,1.68-.28,1.68-1.82v-10.5c0-1.38-.05-1.48-1.52-1.68v-.62ZM154.7,60.36c.53.53,1.43.9,2.19.9,2.01,0,3.3-1.68,3.3-4.27s-1.45-3.9-3.09-3.9c-.81,0-1.78.53-2.4.99v6.28Z"/>
      <path class="cls-9" d="M172.4,60.16c-1.48,1.85-3.09,2.24-3.83,2.24-2.82,0-4.52-2.31-4.52-4.96,0-1.57.55-3.02,1.5-4.04.97-1.08,2.24-1.69,3.44-1.69,2.01,0,3.53,1.73,3.53,3.58-.02.46-.09.67-.46.76-.46.09-3.42.3-6.16.39-.07,3.09,1.82,4.36,3.46,4.36.95,0,1.82-.39,2.68-1.18l.37.53ZM168.43,52.59c-1.06,0-2.1.99-2.42,2.86,1.29,0,2.58,0,3.95-.07.42,0,.55-.12.55-.46.02-1.22-.78-2.33-2.08-2.33Z"/>
      <path class="cls-9" d="M179.21,62.12h-5.31v-.65c1.45-.14,1.59-.25,1.59-1.75v-4.8c0-1.52-.09-1.59-1.43-1.75v-.58c1.13-.19,2.17-.46,3.25-.95v2.54c.81-1.2,1.78-2.47,2.93-2.47.85,0,1.34.53,1.34,1.11,0,.53-.37,1.04-.78,1.27-.23.14-.42.12-.6-.05-.35-.35-.62-.58-1.04-.58-.49,0-1.34.72-1.85,1.89v4.34c0,1.52.12,1.64,1.89,1.78v.65Z"/>
      <path class="cls-9" d="M187.47,62.09c-.39.21-.76.3-.99.3-1.48,0-2.26-.9-2.26-2.75v-6.72h-1.59l-.09-.28.62-.67h1.06v-1.94c.44-.46,1.11-1.06,1.55-1.52l.35.05c-.05.97-.07,2.31-.07,3.42h2.63c.21.23.14.74-.14.95h-2.49v5.91c0,1.87.74,2.22,1.34,2.22.55,0,1.08-.21,1.41-.37l.21.6-1.52.81Z"/>
      <path class="cls-9" d="M195.99,54.73c-.42-1.34-1.02-2.26-2.42-2.26-.81,0-1.43.58-1.43,1.5,0,.99.67,1.45,1.96,2.05,1.99.95,2.98,1.64,2.98,3.16,0,2.12-1.94,3.21-3.76,3.21-1.2,0-2.26-.37-2.75-.65-.12-.67-.32-1.94-.42-2.7l.67-.12c.42,1.48,1.22,2.68,2.84,2.68.88,0,1.62-.6,1.62-1.57,0-1.04-.62-1.57-1.85-2.17-1.62-.78-2.93-1.52-2.93-3.19s1.43-2.98,3.6-2.98c.97,0,1.75.23,2.22.3.07.55.23,2.01.35,2.56l-.67.16Z"/>
    </g>
    <path class="cls-6" d="M19.72,54.23c.48-1.79,1.17-2.37,1.71-2.57.44-.16,1.04-.15,1.98-.58.34-.15.61-.31.77-.41.06.22.14.62.07,1.1-.02.11-.1.6-.46,1.13-.1.15-.43.6-1.03.92-.68.37-1.01.21-1.73.56-.44.21-.75.48-.93.66.03-.18.09-.46.26-.76.08-.13.15-.22.25-.33,0,0,.48-.54,1.03-.85.11-.06.23-.12.23-.12.17-.08.28-.1.48-.2.33-.17.76-.48,1.17-1.11-.17.21-.46.5-.87.72-.33.18-.49.18-.86.35-.48.23-.78.52-1.01.74-.51.49-.83,1-1.01,1.36-.02-.21-.04-.42-.07-.63Z"/>
    <polygon class="cls-2" points="46.23 78.11 57.2 77.68 135.96 77.68 148.44 78.11 136.04 78.55 57.19 78.55 46.23 78.11"/>
    <path class="cls-1" d="M52.38,25.22c-.85-5.02-5.75-7.52-6.5-7.89-2.29-.89-4.04-1.89-5.26-2.66-2.39-1.53-3.59-2.78-4.07-3.31-1.12-1.24-2.09-2.35-2.16-3.96-.04-1.01.29-1.83.55-2.32-.94,1-4.05,4.59-4.45,10.22-.41,5.71,2.26,9.76,3.04,10.86,1.07,1.45,3.96,4.91,8.8,5.97,1.17.26,6.78,1.49,9.2-1.65,1.44-1.86,1.02-4.33.86-5.26ZM43.03,28.95c1.12.79,2.18,1.27,3.01,1.57-1.08.09-3.47.13-5.98-1.21-2.11-1.12-3.3-2.68-3.84-3.51-.4-.66-.95-1.76-1.21-3.21-.27-1.47-.14-2.71,0-3.48.34.32.82.75,1.43,1.23.82.65,1.73,1.28,3.45,2.26,1.19.68,2.76,1.52,4.66,2.41.48.23,1,.52,1.52.89,1.82,1.32,2.78,2.99,3.28,4.07-1.54-.66-3.24-1.32-5.1-1.9-1.11-.34-2.19-.64-3.21-.88.5.54,1.16,1.15,2,1.75Z"/>
    <path class="cls-4" d="M42.34,1.2c-1.43,1.97-1.57,3.64-1.57,4.42.01,3.72,3.34,6.36,5.14,7.79.88.7.94.61,3.71,2.3,7.45,4.53,8.37,5.95,8.79,7.16.28.81.57,2.19.08,4.18.81-.81,1.9-2.1,2.8-3.9,1.01-2.03,1.36-3.88,1.48-5.09.15-1.52.28-5.05-1.57-8.91-1.7-3.55-4.2-5.59-5.45-6.47-1.16-.8-3.55-2.21-6.9-2.57-2.51-.27-4.56.15-5.81.52.85-.06,8.89-.49,14.29,5.9,4.09,4.84,5.07,11.71,2.56,17.74.17-.49,3.11-9.49-2.97-16.83-5.52-6.67-13.75-6.26-14.58-6.21Z"/>
    <path class="cls-3" d="M93.43,6.2h-17.66c-5.4.47-9.5,5.09-9.36,10.37.14,5.07,4.17,9.36,9.36,9.81h19.58v-11.09h-16.5v3.12h11.99v4.51h-14.65c-3.2-.43-5.63-3.1-5.75-6.24-.12-3.31,2.36-6.27,5.75-6.73h17.29l-.04-3.76Z"/>
    <path class="cls-5" d="M95.89,6.2v3.41h17.13c2.12.16,3.7,2,3.58,4-.11,1.84-1.64,3.38-3.58,3.52h-14.4v3.75h9.58l7.02,5.69h6.54l-7.67-6.06c3.74-.18,6.72-2.97,7.1-6.31.44-3.88-2.71-7.73-7.1-8h-18.21Z"/>
    <polygon class="cls-8" points="123.7 6.2 123.7 26.58 145.62 26.58 145.62 23.22 127.87 23.22 127.87 9.7 145.62 9.7 145.62 6.2 123.7 6.2"/>
    <rect class="cls-7" x="129.84" y="14.43" width="14.6" height="3.61"/>
  </g>
</svg>