<?xml version="1.0" encoding="UTF-8"?>
<svg id="Layer_2" data-name="Layer 2" xmlns="http://www.w3.org/2000/svg" viewBox="0 0 149.45 181.16">
  <defs>
    <style>
      .cls-1 {
        fill: #27375b;
        font-family: MyriadConceptRoman-Semibold, 'Myriad Variable Concept';
        font-size: 12.71px;
        font-variation-settings: 'wght' 600, 'wdth' 100;
        font-weight: 600;
      }

      .cls-2 {
        letter-spacing: 0em;
      }

      .cls-3 {
        letter-spacing: 0em;
      }

      .cls-4 {
        fill: #f7b91f;
      }
    </style>
  </defs>
  <g id="Layer_1-2" data-name="Layer 1">
    <g>
      <path class="cls-4" d="M0,21.36h19.4v10.55c.48-.77,8.36-13.08,23.36-13.19,15.28-.12,23.37,12.51,23.79,13.19.34.66.69,1.41,1,2.23.61,1.62.94,3.11,1.13,4.36v59.15h-20.51v-50.94c-1.15-5.13-4.66-9.31-9.28-10.72-6.39-1.95-14.1,1.67-17.32,9.02-.32.78-.64,1.67-.91,2.68-.33,1.22-.51,2.35-.62,3.32v46.64H0V21.36Z"/>
      <path class="cls-4" d="M80.26,102.72h19.66v52.6c2.62,5.77,8.44,9.38,14.62,9.11,7.33-.32,12.57-6,14-11.17.33-1.2.43-2.26.45-3.06l.43-47.47h20.04v76.47h-19.66v-10.85c-.84,1.34-1.91,2.84-3.26,4.38-1.12,1.28-2.23,2.37-3.26,3.28-2.33,1.53-8.88,5.4-18.02,5.15-8.13-.22-13.94-3.58-16.32-5.15-1.72-1.32-4.9-4.13-7.09-8.81-1.87-3.99-2.2-7.61-2.23-9.7v-55.02"/>
      <path class="cls-4" d="M124.04,25.26c-3.3-1.06-6.8-1.62-10.46-1.56-3.56.05-6.95.68-10.13,1.79-14.48,5.01-24.47,19.83-24.6,35.19-.15,18.91,14.66,37.07,34.34,37.58,20.31.53,36.4-17.97,36.26-37.58-.12-15.66-10.59-30.66-25.41-35.42ZM114.09,82.68c-9.03,0-16.34-9.8-16.34-21.89,0-6.64,2.21-12.59,5.7-16.61,2.85-3.29,6.57-5.28,10.64-5.28,3.75,0,7.2,1.69,9.95,4.53,3.89,4,6.39,10.29,6.39,17.36,0,12.09-7.32,21.89-16.34,21.89Z"/>
      <path class="cls-4" d="M124.04,43.43v11.21h-20.59v-10.46c2.85-3.29,6.57-5.28,10.64-5.28,3.75,0,7.2,1.69,9.95,4.53Z"/>
      <path class="cls-4" d="M124.04,43.43v11.21h-20.59v-10.46c2.85-3.29,6.57-5.28,10.64-5.28,3.75,0,7.2,1.69,9.95,4.53Z"/>
      <path class="cls-4" d="M34.73,102.47C14.99,102.78.16,120.72,0,139.45c-.13,15.77,10.15,31.02,24.98,35.93,2.96.99,6.09,1.56,9.36,1.65,3.74.1,7.35-.45,10.73-1.54,14.96-4.79,25.64-20.05,25.53-36.04-.14-19.14-15.76-37.29-35.87-36.98ZM45.07,157.04c-2.74,2.77-6.14,4.41-9.83,4.41-3.88,0-7.46-1.82-10.26-4.85-3.71-4.01-6.08-10.16-6.08-17.04,0-12.09,7.31-21.89,16.34-21.89s16.34,9.8,16.34,21.89c0,7.14-2.56,13.49-6.51,17.48Z"/>
      <path class="cls-4" d="M45.07,145.7v11.34c-2.74,2.77-6.14,4.41-9.83,4.41-3.88,0-7.46-1.82-10.26-4.85v-10.9h20.09Z"/>
      <path class="cls-4" d="M45.07,145.7v11.34c-2.74,2.77-6.14,4.41-9.83,4.41-3.88,0-7.46-1.82-10.26-4.85v-10.9h20.09Z"/>
      <path class="cls-4" d="M124.04,18.73v6.53c-3.3-1.06-6.8-1.62-10.46-1.56-3.56.05-6.95.68-10.13,1.79v-6.76h20.59Z"/>
      <path class="cls-4" d="M124.04,43.43v11.21h-20.59v-10.46c2.85-3.29,6.57-5.28,10.64-5.28,3.75,0,7.2,1.69,9.95,4.53Z"/>
      <path class="cls-4" d="M45.07,145.7v11.34c-2.74,2.77-6.14,4.41-9.83,4.41-3.88,0-7.46-1.82-10.26-4.85v-10.9h20.09Z"/>
      <path class="cls-4" d="M45.07,175.49v5.45h-20.09v-5.56c2.96.99,6.09,1.56,9.36,1.65,3.74.1,7.35-.45,10.73-1.54Z"/>
      <text class="cls-1" transform="translate(130.43 10.64)"><tspan class="cls-3" x="0" y="0">T</tspan><tspan class="cls-2" x="6.64" y="0">M</tspan></text>
    </g>
  </g>
</svg>